<svg aria-hidden="true" xmlns="http://www.w3.org/2000/svg" fill="none" viewBox="0 0 16 16"><path fill="var(--c-svg, currentColor)" fill-rule="evenodd" d="M5.974 14a.5.5 0 0 0 .5.5h2.26a.5.5 0 0 0 .5-.5V9.981h1.307a.5.5 0 0 0 .49-.402l.452-2.26a.5.5 0 0 0-.49-.597h-1.76v-1.26h1.76a.5.5 0 0 0 .5-.5V2.704a.5.5 0 0 0-.5-.5H8.357a2.39 2.39 0 0 0-2.383 2.383v2.136H4.666a.5.5 0 0 0-.5.5v2.26a.5.5 0 0 0 .5.5h1.308zm1-.5V9.481a.5.5 0 0 0-.5-.5H5.166v-1.26h1.308a.5.5 0 0 0 .5-.5V4.587c0-.76.623-1.383 1.383-1.383h2.136v1.26h-1.76a.5.5 0 0 0-.5.5v2.259a.5.5 0 0 0 .5.5h1.65l-.252 1.26H8.733a.5.5 0 0 0-.5.5V13.5z" clip-rule="evenodd"></path></svg>