<svg aria-hidden="true" xmlns="http://www.w3.org/2000/svg" fill="none" viewBox="0 0 16 16"><path fill="var(--c-svg, currentColor)" d="M14.511 3.55a2.8 2.8 0 0 0-.908-.654 2.63 2.63 0 0 0-2.145 0c-.34.152-.648.374-.908.653l.662.71c.173-.186.38-.334.606-.434a1.76 1.76 0 0 1 1.43 0c.227.1.433.248.606.434.174.186.311.407.405.65a2.13 2.13 0 0 1 0 1.534 2 2 0 0 1-.405.65l-3.728 4c-.35.375-.824.587-1.32.587-.494 0-.97-.21-1.32-.585a2.08 2.08 0 0 1-.548-1.416c0-.53.196-1.04.546-1.416l.657-.71-.657-.71-.662.71c-.26.279-.467.61-.608.974a3.2 3.2 0 0 0 0 2.3c.14.365.348.697.608.975a2.7 2.7 0 0 0 3.058.639c.341-.151.651-.373.912-.654l3.728-3.999a3.11 3.11 0 0 0 .813-2.121 3.1 3.1 0 0 0-.822-2.118Z"></path><path fill="var(--c-svg, currentColor)" d="M2.166 12.408a2 2 0 0 1-.406-.651 2.13 2.13 0 0 1 0-1.537c.094-.244.232-.465.406-.651L5.89 5.563a1.9 1.9 0 0 1 .606-.436 1.75 1.75 0 0 1 1.43 0c.226.101.432.25.605.436.173.188.309.41.4.656.091.245.135.507.13.771a2.1 2.1 0 0 1-.139.772 2 2 0 0 1-.405.655L7.53 9.494l.66.71.988-1.06c.526-.566.82-1.332.82-2.131 0-.8-.294-1.566-.82-2.13A2.7 2.7 0 0 0 7.198 4c-.744 0-1.456.317-1.982.882L1.491 8.888a3 3 0 0 0-.61.977 3.2 3.2 0 0 0 0 2.307c.141.365.348.697.61.977a2.7 2.7 0 0 0 1.983.85 2.73 2.73 0 0 0 1.994-.88l-.662-.711a1.9 1.9 0 0 1-.605.436 1.75 1.75 0 0 1-1.43 0 1.9 1.9 0 0 1-.605-.436"></path></svg>