<svg aria-hidden="true" xmlns="http://www.w3.org/2000/svg" fill="none" viewBox="0 0 16 16"><path stroke="var(--c-svg, currentColor)" stroke-linecap="round" stroke-linejoin="round" d="M10.238 10.667c-.541.411-1.343.672-2.238.672s-1.696-.26-2.238-.672M8 5.112c1.722 0 3.268.521 4.326 1.349a1.333 1.333 0 1 1 1.406 2.146q.046.247.046.505c0 2.209-2.587 4-5.778 4s-5.778-1.791-5.778-4q0-.257.046-.507a1.333 1.333 0 1 1 1.406-2.144C4.732 5.633 6.278 5.11 8 5.11Zm0 0L9.334 2l2.68.735-.014.154m0 0a.889.889 0 1 0 1.778 0 .889.889 0 0 0-1.778 0M6.667 8.223a.889.889 0 1 1-1.778 0 .889.889 0 0 1 1.778 0m4.444 0a.889.889 0 1 1-1.778 0 .889.889 0 0 1 1.778 0"></path></svg>