<svg aria-hidden="true" xmlns="http://www.w3.org/2000/svg" fill="none" viewBox="0 0 24 24"><path fill="var(--c-svg, currentColor)" d="M17.25 15a3.75 3.75 0 0 0-2.918 1.418L8.85 12.99c.2-.645.2-1.335 0-1.98l5.482-3.427A3.75 3.75 0 1 0 13.5 5.25c.004.336.054.669.15.99L8.168 9.668a3.75 3.75 0 1 0 0 4.665l5.482 3.427a3.6 3.6 0 0 0-.15.99A3.75 3.75 0 1 0 17.25 15m0-12a2.25 2.25 0 1 1 0 4.5 2.25 2.25 0 0 1 0-4.5m-12 11.25a2.25 2.25 0 1 1 0-4.5 2.25 2.25 0 0 1 0 4.5m12 6.75a2.25 2.25 0 1 1 0-4.5 2.25 2.25 0 0 1 0 4.5"></path></svg>