<svg aria-hidden="true" xmlns="http://www.w3.org/2000/svg" fill="none" viewBox="0 0 24 24"><path fill="var(--c-svg, currentColor)" fill-rule="evenodd" d="M19.414 4.188a.68.68 0 0 1 .038.99l-5.775 5.965 6.172 7.73a.68.68 0 0 1 .076.736.73.73 0 0 1-.654.391h-3.885a.74.74 0 0 1-.578-.274l-4.266-5.343-5.22 5.394a.75.75 0 0 1-1.03.035.68.68 0 0 1-.037-.99l5.387-5.565-6.491-8.13a.68.68 0 0 1-.076-.736A.73.73 0 0 1 3.73 4h3.885a.74.74 0 0 1 .578.274l4.586 5.743 5.607-5.794a.75.75 0 0 1 1.03-.035Zm-8.185 8.756a.7.7 0 0 0-.112-.14L5.207 5.4h2.048l10.539 13.198h-2.049l-4.516-5.655Z" clip-rule="evenodd"></path></svg>